<svg width="360" height="360" viewBox="0 0 360 360" fill="none" xmlns="http://www.w3.org/2000/svg">
<path d="M333.512 158.013C334.678 157.846 337.112 159.213 337.512 166.013C337.912 172.813 337.678 194.513 337.512 204.513C338.345 205.513 338.112 207.613 330.512 208.013C321.012 208.513 285.512 205.513 270.012 208.013C254.512 210.513 232.512 209.513 227.512 211.513C222.512 213.513 218.512 217.013 216.012 217.013C213.512 217.013 168.512 220.513 160.012 220.513C151.512 220.513 108.512 217.013 99.5118 217.013C90.5118 217.013 86.5118 211.513 80.5118 211.513C74.5118 211.513 69.5118 215.013 66.0118 211.513C63.2118 208.713 45.8451 208.013 37.5118 208.013C32.5118 207.346 22.6118 203.613 23.0118 194.013C23.5118 182.013 23.5117 177.513 30.5117 174.013C37.5118 170.513 46.0117 168.513 52.0117 169.513C58.0117 170.513 63.5117 173.013 68.0117 177.513C72.5117 182.013 77.5117 186.013 77.5117 186.013L81.0117 188.513C81.0117 187.513 82.4117 184.913 90.0117 182.513C99.5118 179.513 113.512 175.513 124.512 175.513C135.512 175.513 146.512 177.513 151.012 177.513C155.512 177.513 175.512 181.013 184.012 181.013H210.012C211.512 181.013 235.012 188.513 252.512 188.513H301.512C306.512 187.513 317.012 184.913 319.012 182.513C321.512 179.513 326.512 172.513 326.512 171.013C326.512 169.813 329.178 164.846 330.512 162.513L333.512 158.013Z" fill="#970000"/>
<path d="M184.012 181.013C175.512 181.013 155.512 177.513 151.012 177.513C146.512 177.513 135.512 175.513 124.512 175.513C113.512 175.513 99.5118 179.513 90.0117 182.513C82.4117 184.913 81.0117 187.513 81.0117 188.513L77.5117 186.013C77.5117 186.013 72.5117 182.013 68.0117 177.513C63.5117 173.013 58.0117 170.513 52.0117 169.513C46.0117 168.513 37.5118 170.513 30.5117 174.013C23.5117 177.513 23.5118 182.013 23.0118 194.013C22.6118 203.613 32.5118 207.346 37.5118 208.013C45.8451 208.013 63.2118 208.713 66.0118 211.513C69.5118 215.013 74.5118 211.513 80.5118 211.513C86.5118 211.513 90.5118 217.013 99.5118 217.013C108.512 217.013 151.512 220.513 160.012 220.513C168.512 220.513 213.512 217.013 216.012 217.013C218.512 217.013 222.512 213.513 227.512 211.513C232.512 209.513 254.512 210.513 270.012 208.013C285.512 205.513 321.012 208.513 330.512 208.013C338.112 207.613 338.345 205.513 337.512 204.513C337.678 194.513 337.912 172.813 337.512 166.013C337.112 159.213 334.678 157.846 333.512 158.013L330.512 162.513C329.178 164.846 326.512 169.813 326.512 171.013C326.512 172.513 321.512 179.513 319.012 182.513C317.012 184.913 306.512 187.513 301.512 188.513M184.012 181.013C192.512 181.013 208.512 181.013 210.012 181.013M184.012 181.013H210.012M210.012 181.013C211.512 181.013 235.012 188.513 252.512 188.513M252.512 188.513C266.512 188.513 291.012 188.513 301.512 188.513M252.512 188.513H301.512" stroke="#970000"/>
</svg>
